<?xml version="1.0" encoding="UTF-8"?>
<!DOCTYPE svg PUBLIC "-//W3C//DTD SVG 1.1//EN" "http://www.w3.org/Graphics/SVG/1.1/DTD/svg11.dtd">
<svg xmlns="http://www.w3.org/2000/svg" version="1.1" width="800px" height="800px" style="shape-rendering:geometricPrecision; text-rendering:geometricPrecision; image-rendering:optimizeQuality; fill-rule:evenodd; clip-rule:evenodd" xmlns:xlink="http://www.w3.org/1999/xlink">
<g><path style="opacity:1" fill="#000000" d="M 379.5,31.5 C 438.683,104.524 497.35,178.024 555.5,252C 554.167,252.667 552.833,252.667 551.5,252C 504.39,234.611 457.39,216.945 410.5,199C 409.167,198.333 407.833,198.333 406.5,199C 438.979,230.816 471.313,262.482 503.5,294C 456.931,332.975 410.265,371.975 363.5,411C 357.953,413.853 352.287,416.519 346.5,419C 342.373,422.302 338.873,426.135 336,430.5C 334.613,441.123 333.946,451.789 334,462.5C 348.635,474.981 363.635,486.981 379,498.5C 379.833,520.508 379.666,542.508 378.5,564.5C 360.833,575.333 343.167,586.167 325.5,597C 252.139,612.06 178.806,627.227 105.5,642.5C 104.479,641.998 104.312,641.332 105,640.5C 171.313,575.847 238.479,512.347 306.5,450C 251.485,467.894 196.485,486.227 141.5,505C 140.056,505.781 138.723,505.614 137.5,504.5C 205.774,437.388 275.108,371.555 345.5,307C 288.498,329.322 231.498,351.989 174.5,375C 173.056,375.781 171.723,375.614 170.5,374.5C 197.065,345.765 224.231,317.431 252,289.5C 283.833,258.333 315.667,227.167 347.5,196C 299.425,214.644 251.425,233.81 203.5,253.5C 203.167,253 202.833,252.5 202.5,252C 261.383,178.396 320.383,104.896 379.5,31.5 Z"/></g>
<g><path style="opacity:1" fill="#000000" d="M 713.5,205.5 C 748.112,203.636 759.945,219.303 749,252.5C 730.529,302.945 701.029,345.779 660.5,381C 656.613,384.111 652.28,386.444 647.5,388C 636.335,391.625 625.002,394.625 613.5,397C 537.197,413.194 460.697,428.361 384,442.5C 382.053,441.956 381.22,440.623 381.5,438.5C 381.709,437.006 382.376,435.839 383.5,435C 426.639,417.098 469.305,398.098 511.5,378C 541.628,359.218 569.462,337.385 595,312.5C 611.926,292.644 625.259,270.644 635,246.5C 607.017,263.49 579.85,281.657 553.5,301C 497.547,343.951 441.88,387.285 386.5,431C 384.975,432.009 383.308,432.509 381.5,432.5C 381.211,429.351 381.711,426.351 383,423.5C 454.492,361.191 529.326,303.357 607.5,250C 622.339,241.413 637.339,233.08 652.5,225C 672.021,215.547 692.355,209.047 713.5,205.5 Z M 710.5,217.5 C 717.508,217.334 724.508,217.5 731.5,218C 738.947,219.118 742.28,223.452 741.5,231C 741.263,236.184 740.263,241.184 738.5,246C 718.866,247.05 699.532,250.05 680.5,255C 664.632,259.789 648.966,264.789 633.5,270C 638.771,260.124 643.771,250.124 648.5,240C 668.115,229.188 688.781,221.688 710.5,217.5 Z M 729.5,254.5 C 731.924,254.192 734.257,254.526 736.5,255.5C 725.534,282.948 710.867,308.115 692.5,331C 677.188,329.818 661.855,328.485 646.5,327C 629.174,326.156 611.84,325.489 594.5,325C 607.364,311.475 618.697,296.809 628.5,281C 661.187,267.913 694.854,259.08 729.5,254.5 Z M 585.5,333.5 C 618.279,333.303 650.946,335.136 683.5,339C 684.308,339.308 684.975,339.808 685.5,340.5C 676.016,351.151 666.016,361.318 655.5,371C 651.669,374.419 647.335,377.086 642.5,379C 620.101,385.047 597.434,389.88 574.5,393.5C 558.038,388.956 541.705,384.122 525.5,379C 546.466,365.027 566.466,349.86 585.5,333.5 Z M 513.5,385.5 C 528.771,388.401 543.771,392.401 558.5,397.5C 517.822,406.002 477.155,414.169 436.5,422C 462.277,409.916 487.944,397.749 513.5,385.5 Z"/></g>
<g><path style="opacity:1" fill="#000000" d="M 592.5,412.5 C 615.166,416.222 636.833,423.056 657.5,433C 659.831,435.79 659.664,438.624 657,441.5C 638.214,459.317 616.381,472.151 591.5,480C 580.891,483.203 570.225,486.203 559.5,489C 550.536,490.384 541.536,490.717 532.5,490C 516.333,487.9 500.333,484.9 484.5,481C 451.569,472.601 418.903,463.267 386.5,453C 381.941,452.008 380.274,449.508 381.5,445.5C 393.981,447.203 406.314,449.703 418.5,453C 456.113,465.32 494.446,474.653 533.5,481C 536.167,481.667 538.833,481.667 541.5,481C 523.5,469.667 505.5,458.333 487.5,447C 469.731,446.725 451.897,446.892 434,447.5C 421.757,447.708 409.59,446.874 397.5,445C 406.987,442.605 416.654,441.272 426.5,441C 469.188,439.066 511.855,436.732 554.5,434C 567.684,427.579 580.351,420.413 592.5,412.5 Z M 593.5,421.5 C 597.913,421.853 602.246,422.686 606.5,424C 619.821,428.274 633.155,432.441 646.5,436.5C 646.649,437.552 646.483,438.552 646,439.5C 634.761,448.542 622.594,456.208 609.5,462.5C 594.31,454.74 579.31,446.74 564.5,438.5C 574.394,433.059 584.061,427.392 593.5,421.5 Z M 545.5,442.5 C 548.85,442.335 552.183,442.502 555.5,443C 570.646,450.071 585.313,457.905 599.5,466.5C 584.316,472.953 568.65,477.453 552.5,480C 535.301,468.636 517.968,457.47 500.5,446.5C 515.587,444.787 530.587,443.453 545.5,442.5 Z"/></g>
<g><path style="opacity:1" fill="#000000" d="M 391.5,482.5 C 394.195,482.933 396.362,484.266 398,486.5C 400.156,490.811 402.322,495.144 404.5,499.5C 409.188,496.822 413.521,493.656 417.5,490C 421.519,488.887 424.852,489.887 427.5,493C 421.483,499.19 414.817,504.69 407.5,509.5C 407.291,510.086 406.957,510.586 406.5,511C 407.227,512.399 407.727,513.899 408,515.5C 423.688,524.508 438.688,534.508 453,545.5C 455.936,571.192 458.936,596.858 462,622.5C 472.669,631.337 482.835,640.671 492.5,650.5C 492.02,653.492 490.353,654.659 487.5,654C 475.706,644.541 464.206,634.708 453,624.5C 449.018,600.643 445.851,576.643 443.5,552.5C 442.99,550.912 441.99,549.745 440.5,549C 426.915,540.291 413.415,531.458 400,522.5C 395.664,509.309 392.83,495.975 391.5,482.5 Z"/></g>
<g><path style="opacity:1" fill="#000000" d="M 446.5,490.5 C 446.917,489.876 447.584,489.543 448.5,489.5C 471.076,494.56 493.409,500.394 515.5,507C 558.199,547.367 601.199,587.367 644.5,627C 649,631.5 653.5,636 658,640.5C 658.667,641.167 658.667,641.833 658,642.5C 652.868,640.925 647.701,639.425 642.5,638C 588.779,626.714 535.113,615.214 481.5,603.5C 479.997,602.41 479.664,601.243 480.5,600C 479.071,580.836 477.237,561.669 475,542.5C 467.278,524.045 457.778,506.712 446.5,490.5 Z"/></g>
<g><path style="opacity:1" fill="#000000" d="M 396.5,584.5 C 406.36,588.928 416.36,593.094 426.5,597C 428.18,597.347 429.18,598.347 429.5,600C 429.491,644.768 429.491,689.435 429.5,734C 428.737,734.944 427.737,735.444 426.5,735.5C 395.849,734.726 365.182,734.393 334.5,734.5C 334.814,698.984 334.48,663.818 333.5,629C 334.249,627.266 334.749,625.433 335,623.5C 355.785,610.863 376.285,597.863 396.5,584.5 Z"/></g>
</svg>
